<?xml version="1.0" encoding="UTF-8"?>
<svg xmlns="http://www.w3.org/2000/svg" xmlns:xlink="http://www.w3.org/1999/xlink" width="64px" height="64px" viewBox="0 0 64 64" version="1.1">
<g id="surface1">
<path style=" stroke:none;fill-rule:nonzero;fill:rgb(9.019608%,8.235294%,8.235294%);fill-opacity:1;" d="M 9.601562 0 L 54.398438 0 C 59.703125 0 64 4.296875 64 9.601562 L 64 54.398438 C 64 59.703125 59.703125 64 54.398438 64 L 9.601562 64 C 4.296875 64 0 59.703125 0 54.398438 L 0 9.601562 C 0 4.296875 4.296875 0 9.601562 0 Z M 9.601562 0 "/>
<path style=" stroke:none;fill-rule:nonzero;fill:rgb(100%,100%,100%);fill-opacity:1;" d="M 14.875 31.875 C 17 35.625 21 37.875 27.625 38.5 C 26.625 39.25 25.5 40.625 25.375 42.25 C 24.125 43 21.75 43.25 19.875 42.625 C 17.25 41.75 16.25 36.625 12.25 37.375 C 11.375 37.5 11.5 38.125 12.25 38.625 C 13.5 39.375 14.875 40.625 15.5 42.375 C 17 46.25 20.125 47.25 25.125 46.5 L 25.125 52.125 C 25.125 53.875 22.625 54.375 22.625 55.25 C 22.625 55.625 23.5 55.625 24.125 55.625 C 25.375 55.625 28.125 54.5 28.125 52.75 C 28.125 51.25 28.125 46.25 28.25 45.375 C 28.25 43.5 29.25 42.875 29.25 42.875 C 29.25 42.875 29.375 53.125 29 54.375 C 28.5 56 27.75 55.75 27.75 56.5 C 27.75 57.625 31 56.75 32.125 54.375 C 33 52.5 32.625 42.5 32.5 42.625 L 33.375 42.625 C 33.375 42.625 33.375 47.25 33.5 49.25 C 33.5 51.375 33.375 54.125 34.625 55.5 C 35.5 56.375 38.25 57.875 38.25 56.5 C 38.25 55.75 36.75 55 36.75 52.875 L 36.75 43 C 38 43 37.75 46.25 37.75 46.25 L 37.875 52.25 C 37.875 52.25 37.625 54.5 40.25 55.375 C 41.25 55.75 43.25 55.75 43.375 55.25 C 43.5 54.75 40.875 53.875 40.875 52.125 L 40.875 46 C 40.875 41.5 40.25 39.875 38.125 38.5 C 44.75 37.875 48.875 36.25 50.875 31.875 C 52.125 29.375 52.375 26.375 52.375 24.125 C 52.375 17.875 49.375 15.75 48.75 14.625 C 49.625 9.875 48.625 7.75 48.125 7.125 C 46.375 6.5 42.125 8.625 39.875 10.125 C 36.125 9 28.125 9.125 25.125 10.375 C 19.625 6.5 16.75 7.125 16.75 7.125 C 16.75 7.125 14.875 10.5 16.25 15.375 C 14.375 17.625 13.125 19.25 13 23.5 C 13 26.875 13.375 29 14.875 31.875 Z M 14.875 31.875 "/>
</g>
</svg>
